<?xml version="1.0" encoding="utf-8"?>
<!-- Generator: Adobe Illustrator 16.0.4, SVG Export Plug-In . SVG Version: 6.00 Build 0)  -->
<!DOCTYPE svg PUBLIC "-//W3C//DTD SVG 1.1//EN" "http://www.w3.org/Graphics/SVG/1.1/DTD/svg11.dtd">
<svg version="1.1" id="Ebene_2" xmlns="http://www.w3.org/2000/svg" xmlns:xlink="http://www.w3.org/1999/xlink" x="0px" y="0px"
	 width="147.7421875px" height="88.0810547px" viewBox="0 0 147.7421875 88.0810547"
	 style="enable-background:new 0 0 147.7421875 88.0810547;" xml:space="preserve">
<style type="text/css">
<![CDATA[
	.st0{fill-rule:evenodd;clip-rule:evenodd;fill:#FF0000;}
	.st1{fill-rule:evenodd;clip-rule:evenodd;}
	.st2{fill-rule:evenodd;clip-rule:evenodd;fill:#FFFFFF;}
]]>
</style>
<g id="Stander">
	<path id="Weiß" class="st2" d="M80.1210938,19.21875c-13.8891602-6.9155273-22.6943359-2.5688477-22.6943359-2.5688477
		s2.0400391,9.5605469,1.2211914,14.0214844c-1.8828125,10.2587891-4.3422852,13.9438477-13.137207,21.8520508
		c-0.2524414,1.0107422-1.0097656,3.4101562-1.1367188,4.4208984c14.4003906-1.3896484,25.4526367-1.0742188,36.5693359,2.3369141
		c5.0097656,1.5371094,15.5605469,3.8349609,22.4199219,5.578125c13.4511719,3.4189453,30.1816406,0.3037109,40.2949219-8.3359375
		c-16-6.4003906-30.8203125-14.3574219-37.1367188-19.03125C104.2617188,35.8193359,82.6679688,20.4858398,80.1210938,19.21875
		L80.1210938,19.21875z"/>
	<path id="Rot" class="st0" d="M103.4902344,64.2285156c-6.8613281-1.7441406-22.2949219-5.7050781-22.2949219-5.7050781
		l1.8945312-5.7480469c0,0,3.828125,1.2148438,7.2011719-0.7578125c3.5195312-2.0595703,4.609375-5.0527344,4.609375-5.0527344
		s5.34375,2.5615234,19.1152344,6.5693359c8.9882812,2.6152344,20.7167969,3.5361328,28.1269531,3.1152344
		C129.34375,66.7548828,111.8359375,66.3496094,103.4902344,64.2285156L103.4902344,64.2285156z M82.6054688,34.25
		c-3.7792969,1.4609375-5.8105469,5.3891602-5.8105469,5.3891602s-4.5463867-2.8662109-8.6733398-3.6206055
		c-6.2929688-1.1508789-9.7680664,0.3369141-9.7680664,0.3369141S60.0375977,30.5444336,59.784668,26.25
		c-0.2524414-4.2949219-1.347168-8.8422852-1.347168-8.8422852s7.4155273-4.4726562,21.3046875,2.4423828
		c1.7539062,0.8725586,13.5585938,9.0102539,13.5585938,9.0102539L90.4375,35.0078125
		C90.4375,35.0078125,86.6425781,32.6894531,82.6054688,34.25L82.6054688,34.25z"/>
	<path id="Schwarz" class="st1" d="M0.0253906,82.4404297c0,0-0.7802734,5.640625,6.3007812,5.640625
		c6.7753906,0,7.8486328-2.5664062,7.7724609-4.8476562c-0.1381836-4.1230469-5.8442383-4.03125-5.9086914-5.9638672
		C8.1625977,76.4541016,8.6552734,76.3125,9.1176758,76.3125c1.8393555,0,1.565918,1.9824219,1.565918,1.9824219h4.9003906
		c0,0,0.5327148-5.3291016-6.4711914-5.3291016c-5.8637695,0-6.7304688,3.3945312-6.6875,4.6679688
		c0.128418,3.8417969,5.5986328,4.25,5.6655273,6.2617188c0.0332031,0.9941406-0.5336914,1.1542969-1.2915039,1.1542969
		c-1.7304688,0-1.6860352-2.5927734-1.6860352-2.5927734L0.0253906,82.4404297L0.0253906,82.4404297z M19.3740234,73.28125
		l-4.1455078,14.484375H20.4375l1.9477539-6.9306641l2.3891602,6.9306641h5.2685547l-2.3481445-6.8037109l6.5415039-7.6806641
		H27.746582l-4.8261719,5.6845703l1.5893555-5.6845703H19.3740234L19.3740234,73.28125z M55.8618164,81.2705078
		l-1.0717773,3.7460938h3.6049805c0,0,0.8227539,0.0117188,1.2402344-1.4492188
		c0.6601562-2.3105469-0.890625-2.296875-0.890625-2.296875H55.8618164L55.8618164,81.2705078z M57.3271484,76.1757812
		l-0.9165039,3.1728516h3.4443359c0,0,0.9418945,0.03125,1.34375-1.3291016c0.543457-1.84375-0.9711914-1.84375-0.9711914-1.84375
		H57.3271484L57.3271484,76.1757812z M52.9355469,73.28125l-4.1479492,14.484375h11.6630859
		c0,0,3.4707031-0.0117188,4.4453125-3.3720703c0.6396484-2.2060547-1.6074219-3.625-1.6074219-3.625
		s1.9707031-0.4951172,2.4609375-2.2060547c1.5136719-5.28125-2.3291016-5.28125-2.3291016-5.28125H52.9355469L52.9355469,73.28125z
		 M39.8325195,59.1328125l-1.2504883,4.3652344c0,0-1.9492188-0.3847656-3.2841797-1.1777344
		c-0.9414062-0.5595703-1.1274414-1.4013672,1.2285156-2.3876953
		C38.6113281,59.0595703,39.8325195,59.1328125,39.8325195,59.1328125L39.8325195,59.1328125z M56.4428711,20.6357422
		l-7.8027344,27.3037109c0,0,1.4887695-1.0537109,4.074707-5.0249023c2.3198242-3.5620117,4.4775391-7.8735352,4.5195312-14.5639648
		C57.2705078,22.6967773,56.4428711,20.6357422,56.4428711,20.6357422L56.4428711,20.6357422z M54.621582,7.5234375
		c-0.9609375-1.1040039-1.3823242-2.6230469-0.9956055-4.1181641c0.6323242-2.4458008,3.1884766-3.9003906,5.7084961-3.2485352
		s4.0498047,3.1630859,3.4169922,5.6088867c-0.3959961,1.5332031-1.5483398,2.6772461-2.9741211,3.1567383
		c-0.090332,0.2851562-0.1186523,0.4013672-0.1186523,0.4013672l-1.6425781,5.8203125c0,0,3.3842773-1.3056641,6.9482422-1.3056641
		c5.4492188,0,12.8696289,1.3945312,21.7856445,7.90625c1.8300781,1.3374023,19.4160156,13.7099609,21.1074219,14.9355469
		c1.8574219,1.3481445,8.6367188,5.237793,10.5878906,6.2241211c22.0820312,11.1601562,21.9375,10.640625,29.296875,12.8613281
		C145.8125,57.1298828,134.3867188,67.2587891,115.53125,67.2587891c-6.8183594,0-15.6542969-1.8759766-25.2617188-4.2089844
		C75.25,59.4023438,69.4780273,57.6279297,56.3325195,57.6279297c-4.9370117,0-10.7563477,0.8955078-10.7563477,0.8955078
		l-1.8173828,6.4912109c0,0,2.3735352,0.3681641,3.987793,2.03125c3.5166016,3.6259766,1.3129883,8.4462891-2.828125,9.25
		c0.6206055-1.3867188,1.2412109-4.1328125-0.0234375-6.1054688c-0.8330078-1.2998047-2.2988281-1.2324219-2.2988281-1.2324219
		s-3.8452148,13.5351562-4.034668,14.2080078c-0.1894531,0.6738281-0.1020508,1.8759766,1.5180664,1.8759766
		c1.7255859,0,2.5263672-1.8876953,2.5263672-1.8876953l-2.0209961-0.5048828l0.6948242-2.6523438l7.3261719,0.1894531
		l-2.0844727,7.5917969h-2.1469727l-0.1264648-2.0976562c0,0-1.6420898,2.2871094-6.6948242,2.2871094
		c-4.328125,0-4.6586914-4.6416016-4.2851562-5.9824219c0.1469727-0.5263672,4.1826172-14.5566406,4.1826172-14.5566406
		s-8.9755859-2.7070312-7.8691406-6.6064453c1.5092773-5.3183594,11.4155273-5.7714844,11.4155273-5.7714844L54.5268555,7.8710938
		C54.5268555,7.8710938,54.5541992,7.7841797,54.621582,7.5234375L54.621582,7.5234375z M99.3222656,61.7441406
		c-2.375-0.6113281-17.484375-4.3046875-20.3378906-5.0527344c-4.5922852-1.2041016-15.7749023-2.7998047-22.1123047-2.7998047
		c-4.7524414,0-8.4077148,0.4824219-10.1503906,0.7314453c0.2294922-0.8339844,0.0883789-0.3320312,0.3178711-1.2089844
		c0.6157227-0.3007812,9.9047852-7.0019531,12.7451172-17.5009766c2.3686523-8.7543945,0.1894531-16.4208984,0-17.7470703
		c1.6420898-0.7583008,11.4082031-3.0917969,25.8325195,7.0102539c2.2148438,1.5512695,20.3632812,14.2519531,22.4082031,15.6831055
		c2.2578125,1.578125,7.3867188,4.3886719,9.7382812,5.5380859c18.1230469,8.8564453,21.0097656,9.9365234,22.3378906,10.3154297
		C125.1542969,66.4179688,109.9316406,64.4775391,99.3222656,61.7441406L99.3222656,61.7441406z M85.7753906,32.565918
		c-5.9824219,0-10.8325195,4.8496094-10.8325195,10.8325195c0,5.9814453,4.8500977,10.8310547,10.8325195,10.8310547
		s10.8320312-4.8496094,10.8320312-10.8310547C96.6074219,37.4155273,91.7578125,32.565918,85.7753906,32.565918
		L85.7753906,32.565918z M85.7988281,51.0927734c-4.2441406,0-7.6835938-3.4414062-7.6835938-7.6845703
		c0-4.2441406,3.4394531-7.6845703,7.6835938-7.6845703s7.6855469,3.4404297,7.6855469,7.6845703
		C93.484375,47.6513672,90.0429688,51.0927734,85.7988281,51.0927734L85.7988281,51.0927734z M92.0058594,45.8613281
		c0-0.3447266-0.1015625-0.2802734-1.8964844-0.3574219c-1.5722656-3.2666016-4.1367188-4.5439453-4.6640625-6.331543
		c0.7441406-1.0327148,1.4863281-0.3525391,1.421875-1.0053711c-0.0273438-0.2797852-0.4023438-0.3256836-1.375-0.2807617
		c-1.2578125,0.059082-1.5039062,0.0957031-1.9511719,0.9873047c-0.2148438,0.4301758-1.9394531,3.7539062-2.1933594,4.28125
		c-0.4511719-0.0693359-1.8046875-0.3286133-2.3320312-0.2558594c0.0800781,0.8886719,0.9160156,2.8637695,1.8632812,3.3666992
		c-0.1113281,0.4394531-0.3808594,0.1181641-0.5566406,0.8984375c-0.1894531,0.8457031,0.0351562,1.0166016,0.5742188,1.2265625
		c0.4492188,0.1757812,0.9199219-0.0869141,1.1484375-0.7246094c0.3457031-0.9667969-0.1152344-0.8955078-0.0429688-1.3183594
		c0.2832031,0,9,0.0019531,9.3144531,0.0019531C91.9492188,46.3496094,92.0058594,46.3251953,92.0058594,45.8613281
		L92.0058594,45.8613281z M86.8027344,43.9545898c0.0351562-0.0820312,0.1191406-0.1635742,0.1933594-0.1894531l0.796875-0.2836914
		c0.1367188-0.0483398,0.2792969-0.0205078,0.3105469,0.0786133l0.1933594,0.6235352
		c0.0742188,0.2358398-0.1054688,0.4682617-0.375,0.4682617h-1.2578125c-0.0957031,0-0.1132812-0.1230469-0.0527344-0.2597656
		L86.8027344,43.9545898L86.8027344,43.9545898z M81.1035156,47.7597656
		c-0.1445312-0.0498047-0.2011719-0.2666016-0.1269531-0.4863281c0.0761719-0.21875,0.2539062-0.3564453,0.3964844-0.3076172
		C81.5175781,47.015625,81.5742188,47.2333984,81.5,47.4521484S81.2480469,47.8085938,81.1035156,47.7597656L81.1035156,47.7597656z
		"/>
</g>
</svg>
